<?xml version="1.0" encoding="utf-8"?>
<!-- Generator: Adobe Illustrator 23.0.5, SVG Export Plug-In . SVG Version: 6.00 Build 0)  -->
<svg version="1.1" id="Layer_1" xmlns="http://www.w3.org/2000/svg" xmlns:xlink="http://www.w3.org/1999/xlink" x="0px" y="0px"
	 viewBox="0 0 32 14" style="enable-background:new 0 0 32 14;" xml:space="preserve">
<style type="text/css">
	.st0{fill:#DCEEE4;}
	.st1{fill:#BABBAF;}
	.st2{fill:#FFFFFF;}
	.st3{fill:#66873A;}
	.st4{fill:#999A8E;}
	.st5{fill:#F6C579;}
	.st6{fill:#D8DACB;}
	.st7{fill:#917951;}
	.st8{fill:#D5C1A3;}
	.st9{fill:none;stroke:#FFFFFF;stroke-width:0.25;stroke-miterlimit:10;}
</style>
<g>
	<g>
		<rect x="1.82" y="10.4" class="st0" width="1.74" height="3.3"/>
		<rect x="7.72" y="5.08" class="st0" width="1.74" height="8.88"/>
		<path id="foundation_3_" class="st1" d="M1.82,13.58h7.64l0,0c0,0.33-0.26,0.6-0.58,0.6H2.39C2.08,14.19,1.82,13.92,1.82,13.58
			L1.82,13.58z"/>
		<path class="st2" d="M7.46,4.83c0,0.27-1.11,0.5-2.47,0.5c-0.14,0-0.28,0-0.41-0.01c-0.05,0-0.1,0-0.15-0.01
			C4.41,5.33,4.4,5.35,4.39,5.37C3.94,5.48,3.25,5.55,2.47,5.55H2.44C1.09,5.55,0,5.33,0,5.06C0,4.8,0.98,4.59,2.22,4.56
			c0.17-0.38,0.6-0.65,1.12-0.65c0.41,0,0.77,0.17,0.98,0.44c0.21-0.01,0.43-0.02,0.66-0.02C6.35,4.33,7.46,4.55,7.46,4.83z"/>
		<rect x="4.3" y="8.68" class="st3" width="1.86" height="4.93"/>
		<g>
			<g>
				<path class="st4" d="M6.98,8.35c-1.02,0-2.04,0-3.07,0c0,0.03,0,0.06-0.01,0.09c1.02,0,2.05,0,3.07,0
					C6.98,8.41,6.98,8.38,6.98,8.35z"/>
				<path class="st4" d="M6.6,11.65c0-0.77,0-1.51,0-2.3c-0.79,0-1.54,0-2.29,0c0,0.79,0,1.55,0,2.3
					C5.09,11.65,5.83,11.65,6.6,11.65z"/>
				<path class="st4" d="M6.03,8.06c0.07,0.09,0.23,0.11,0.43,0.21C6.26,6.38,6.09,4.64,5.91,2.88c-0.33,0-0.62,0-0.93,0
					C4.8,4.67,4.63,6.42,4.44,8.27c0.2-0.09,0.36-0.1,0.41-0.19C5.28,7.44,5.62,7.48,6.03,8.06z"/>
				<path class="st4" d="M5.03,8.18c0.28,0,0.54,0,0.85,0C5.53,7.62,5.32,7.63,5.03,8.18z"/>
				<path class="st5" d="M6.04,2.14H4.8c0.02-0.03,0.06-0.07,0.13-0.1C5.37,1.8,5.24,1.29,5.31,0.89c0.04-0.23,0.04-0.47,0.07-0.7
					c0.03,0,0.06,0,0.09,0c0.04,0.43,0.12,0.85,0.12,1.27c0,0.29,0.16,0.48,0.33,0.57C5.98,2.07,6.02,2.11,6.04,2.14z"/>
				<path class="st4" d="M6.69,11.65c-0.83,0-1.66,0-2.49,0c-0.16,0.15-0.31,0.3-0.47,0.46h3.43C7,11.95,6.85,11.8,6.69,11.65z"/>
				<rect x="4.71" y="2.14" class="st4" width="1.42" height="0.75"/>
			</g>
			<path class="st6" d="M6.45,8.35c-0.2-0.09-0.36-0.11-0.43-0.21C5.62,7.55,5.28,7.51,4.85,8.16C4.8,8.25,4.64,8.26,4.44,8.35
				C4.63,6.48,4.8,4.69,4.98,2.88c0.31,0,0.61,0,0.93,0C6.09,4.67,6.26,6.44,6.45,8.35z M5.48,3.41C5.46,3.41,5.44,3.42,5.42,3.42
				c0,1.26,0,2.52,0,3.77c0.02,0,0.04,0,0.05,0C5.48,5.93,5.48,4.67,5.48,3.41z"/>
			<path class="st6" d="M6.69,9.05c0,0.89,0,1.73,0,2.59c-0.84,0-1.65,0-2.49,0c0-0.85,0-1.7,0-2.59C5.01,9.05,5.84,9.05,6.69,9.05z
				 M6.24,11.39c0-0.49,0-0.95,0-1.4c0-0.34-0.58-0.84-0.88-0.71C5.1,9.39,4.72,9.56,4.67,9.77c-0.1,0.51-0.03,1.06-0.03,1.62
				C5.2,11.39,5.7,11.39,6.24,11.39z"/>
			<path class="st6" d="M3.73,12.76c0-0.24,0-0.43,0-0.65c1.15,0,2.28,0,3.43,0c0,0.22,0,0.43,0,0.65
				C6.01,12.76,4.89,12.76,3.73,12.76z"/>
			<path class="st6" d="M3.11,13.64c0-0.24,0-0.43,0-0.65c1.57,0,3.11,0,4.68,0c0,0.22,0,0.43,0,0.65
				C6.22,13.64,4.7,13.64,3.11,13.64z"/>
			<path class="st6" d="M3.91,8.35c1.02,0,2.04,0,3.07,0c0,0.03,0,0.06,0,0.09c-1.02,0-2.05,0-3.07,0C3.91,8.41,3.91,8.38,3.91,8.35
				z"/>
			<path class="st5" d="M5.48,3.4c0,1.24,0,2.49,0,3.73c-0.02,0-0.04,0-0.05,0c0-1.24,0-2.48,0-3.71C5.44,3.41,5.46,3.4,5.48,3.4z"
				/>
			<path class="st7" d="M6.24,11.39c-0.54,0-1.04,0-1.6,0c0-0.55-0.07-1.1,0.03-1.62c0.04-0.21,0.43-0.39,0.69-0.5
				c0.3-0.13,0.87,0.37,0.88,0.71C6.24,10.44,6.24,10.9,6.24,11.39z M6.06,11.23c0-0.46,0.07-0.88-0.03-1.26
				c-0.05-0.22-0.36-0.5-0.56-0.51C5.26,9.45,4.89,9.69,4.84,9.89c-0.1,0.42-0.03,0.89-0.03,1.34C5.26,11.23,5.63,11.23,6.06,11.23z
				"/>
			<path class="st8" d="M6.06,11.23c-0.43,0-0.8,0-1.25,0c0-0.45-0.07-0.92,0.03-1.34c0.05-0.2,0.42-0.44,0.63-0.43
				c0.2,0.01,0.51,0.29,0.56,0.51C6.13,10.35,6.06,10.77,6.06,11.23z"/>
			<polygon class="st6" points="4.44,8.35 4.46,8.35 6.45,8.35 6.45,8.35 6.35,7.28 4.54,7.28 			"/>
			<rect x="3.91" y="8.44" class="st1" width="3.07" height="0.61"/>
			<path class="st4" d="M7.16,12.76c-1.14,0-2.29,0-3.43,0c-0.21,0.08-0.42,0.15-0.62,0.23h4.68C7.57,12.91,7.37,12.83,7.16,12.76z"
				/>
		</g>
	</g>
	<g>
		<g>
			<path class="st9" d="M28.72,13.21c1.01-0.24,2-0.56,2.96-0.96"/>
			<path class="st9" d="M24.89,13.8c0.86-0.07,1.71-0.17,2.56-0.32"/>
			<path class="st9" d="M21.53,13.89c0.77,0.01,1.55,0,2.32-0.03"/>
			<path class="st9" d="M19.27,13.8c0.42,0.02,0.84,0.05,1.25,0.06"/>
			<path class="st9" d="M16.77,13.61c0.5,0.04,1,0.08,1.5,0.12"/>
			<path class="st9" d="M14.31,13.39c0.49,0.05,0.98,0.09,1.47,0.14"/>
			<path class="st9" d="M11.86,13.17c0.49,0.04,0.98,0.08,1.47,0.12"/>
			<path class="st9" d="M8.91,13c0.65,0.02,1.31,0.05,1.96,0.1"/>
			<path class="st9" d="M6.56,13c0.47-0.01,0.94-0.02,1.41-0.02"/>
			<path class="st9" d="M4.39,13.25c0.45-0.07,0.91-0.13,1.36-0.18"/>
			<path class="st9" d="M1.68,13.79c0.64-0.16,1.28-0.29,1.93-0.41"/>
		</g>
		<g>
			<path class="st2" d="M22.74,10.51c-0.28,0.26-0.51,0.5-0.71,0.72c0.2,0,0.41-0.02,0.63-0.02c0.83-0.02,1.7-0.03,2.58-0.03h0.93
				c0.57,0.02,0.97-0.02,1.2-0.14c0.2-0.12,0.55-0.5,1.05-1.15h0.81c-0.65,0.76-1.2,1.69-1.66,2.77c-0.57-0.09-1.18-0.16-1.78-0.19
				c-0.63-0.05-1.3-0.07-1.99-0.07c-0.81,0-2.01,0.05-3.59,0.14l0.24-0.64c0.02-0.02,0.02-0.03,0.04-0.05
				c0.57-0.71,1.36-1.5,2.39-2.36V9.48c0.24-0.21,0.51-0.43,0.79-0.65c1.42-1.14,2.33-1.93,2.74-2.38c0.12-0.12,0.22-0.26,0.32-0.38
				c0.45-0.52,0.77-1,0.97-1.47c0.2-0.43,0.3-0.84,0.3-1.26c0-0.55-0.14-1-0.47-1.34c-0.04-0.03-0.06-0.07-0.1-0.1
				c-0.39-0.38-0.87-0.55-1.44-0.55c-0.49,0-0.95,0.14-1.4,0.43c-0.22,0.14-0.43,0.33-0.65,0.55c-0.04,0.05-0.1,0.1-0.14,0.17h-0.12
				l1.56-1.95c0.47-0.19,0.97-0.28,1.52-0.28c0.36,0,0.71,0.03,1.01,0.12c0.55,0.12,0.99,0.34,1.38,0.69
				c0.08,0.07,0.16,0.14,0.22,0.22c0.45,0.48,0.67,1.03,0.67,1.67c0,0.45-0.1,0.9-0.32,1.34c-0.2,0.47-0.57,0.95-1.05,1.43
				c-0.3,0.34-1.18,1.02-2.62,2.05C24.65,8.85,23.53,9.77,22.74,10.51z"/>
			<g>
				<path class="st2" d="M20.12,8.91l-0.14,0.99C20.03,9.61,20.08,9.29,20.12,8.91C20.12,8.91,20.12,8.91,20.12,8.91z"/>
				<path class="st2" d="M21.88,0.44L21.7,0.45L21.03,0.5c-0.28,0.24-0.55,0.48-0.79,0.71c0.36-0.03,0.77-0.07,1.22-0.1l0.23-0.03
					L21.38,2.2c0,0,0,0,0,0C21,3.42,20.63,5.35,20.26,7.96l-0.14,0.96c0,0,0,0,0,0c-0.05,0.38-0.09,0.7-0.14,0.99L19.97,10
					l0.01-0.09c-0.08,0.5-0.17,0.89-0.24,1.15c-0.1,0.33-0.2,0.65-0.34,0.98c0.57-0.72,1.36-1.52,2.39-2.38l0.22-1.81l0.85-5.34
					L22.94,2c0.04-0.21,0.08-0.43,0.12-0.67c0.08-0.31,0.16-0.64,0.26-1L21.88,0.44z"/>
				<path class="st2" d="M12.6,12.49c0.73-0.81,1.58-1.84,2.55-3.12c1.95-0.03,3.39-0.05,4.3-0.05l0.1-0.74c-0.02,0-0.02,0-0.02,0
					c-0.32,0.02-0.65,0.03-0.93,0.03c-1.22,0-2.15-0.02-2.82-0.03l3.06-3.84c0.58-0.72,1.16-1.45,1.75-2.17
					c0.15-0.21,0.31-0.42,0.46-0.63c0.05-0.18,0.11-0.37,0.16-0.55c-0.23,0.02-0.46,0.04-0.69,0.07c-1.68,2.18-3.46,4.4-5.35,6.65
					c-1.27,1.51-2.53,2.97-3.79,4.39H12.6z"/>
			</g>
		</g>
	</g>
</g>
</svg>
